<?xml version="1.0" encoding="utf-8"?>
<!-- Generator: Adobe Illustrator 16.0.3, SVG Export Plug-In . SVG Version: 6.00 Build 0)  -->
<!DOCTYPE svg PUBLIC "-//W3C//DTD SVG 1.1//EN" "http://www.w3.org/Graphics/SVG/1.1/DTD/svg11.dtd">
<svg version="1.1" id="Layer_1" xmlns="http://www.w3.org/2000/svg" xmlns:xlink="http://www.w3.org/1999/xlink" x="0px" y="0px"
	 width="600px" height="600px" viewBox="0 0 600 600" enable-background="new 0 0 600 600" xml:space="preserve">
<g id="Layer_2" display="none">
	<rect x="-26.5" y="-19.5" display="inline" fill="#41444B" width="665" height="648"/>
</g>
<g>
	<path fill="#E6E6E6" d="M537.14,103.5c-6.189-10.7-17.02-17.08-28.979-17.08H91.84c-18.65,0-33.83,15.83-33.83,35.3v356.56
		c0,19.47,15.18,35.3,33.83,35.3h416.33c18.64,0,33.82-15.83,33.82-35.3V121.72C541.99,115.29,540.31,108.99,537.14,103.5z
		 M163.41,458.4c-4.83,10.359-15.33,17.529-27.51,17.529c-16.76,0-30.35-13.59-30.35-30.35c0-9.67,4.53-18.29,11.58-23.84
		c5.16-4.08,11.69-6.51,18.77-6.51c6.58,0,12.67,2.1,17.65,5.67c0.49,0.34,0.97,0.71,1.43,1.08c6.87,5.56,11.27,14.069,11.27,23.6
		C166.25,450.16,165.23,454.51,163.41,458.4z M163.41,375.7c-4.83,10.359-15.33,17.53-27.51,17.53
		c-16.76,0-30.35-13.591-30.35-30.351c0-9.67,4.53-18.3,11.58-23.84c5.16-4.08,11.69-6.51,18.77-6.51c6.58,0,12.67,2.1,17.65,5.67
		c0.49,0.34,0.97,0.7,1.43,1.08c6.87,5.56,11.27,14.069,11.27,23.6C166.25,367.46,165.23,371.8,163.41,375.7z M153.55,304.83
		c-4.98,3.57-11.07,5.67-17.65,5.67c-7.08,0-13.61-2.43-18.77-6.51c-7.05-5.55-11.58-14.16-11.58-23.84
		c0-9.68,4.53-18.3,11.58-23.84c5.16-4.08,11.69-6.51,18.77-6.51c6.58,0,12.67,2.1,17.65,5.67c7.69,5.49,12.7,14.49,12.7,24.68
		S161.24,299.34,153.55,304.83z M468.17,469.08H221.49c-12.98,0-23.5-10.521-23.5-23.5c0-12.97,10.52-23.5,23.5-23.5h246.68
		c12.98,0,23.5,10.53,23.5,23.5C491.67,458.559,481.151,469.08,468.17,469.08z M468.17,386.38H221.49c-12.98,0-23.5-10.52-23.5-23.5
		c0-12.979,10.52-23.5,23.5-23.5h246.68c12.98,0,23.5,10.521,23.5,23.5C491.67,375.86,481.151,386.38,468.17,386.38z M468.17,303.65
		H221.49c-12.98,0-23.5-10.521-23.5-23.5s10.52-23.5,23.5-23.5h246.68c12.98,0,23.5,10.52,23.5,23.5S481.151,303.65,468.17,303.65z
		 M506.18,217.64H93.82v-72.9c0-11.56,8.9-20.93,19.88-20.93h372.6c10.98,0,19.88,9.37,19.88,20.93V217.64z"/>
</g>
<g>
	<path fill="#E6E6E6" d="M298.014,1091.828c-16.995,0-30.822-14.49-30.822-32.303v-356.56c0-17.813,13.827-32.303,30.822-32.303
		h416.329c10.875,0,20.734,5.826,26.375,15.584c2.908,5.036,4.445,10.816,4.445,16.719v356.56c0,17.813-13.826,32.303-30.82,32.303
		H298.014z"/>
	<path fill="#E6E6E6" d="M714.341,673.663c10.074,0,18.897,5.642,23.777,14.085c2.563,4.438,4.044,9.649,4.044,15.218v356.56
		c0,16.182-12.46,29.303-27.821,29.303H298.014c-15.362,0-27.822-13.121-27.822-29.303v-356.56c0-16.18,12.46-29.303,27.822-29.303
		H714.341 M714.341,667.663H298.014c-18.649,0-33.822,15.836-33.822,35.303v356.56c0,19.466,15.172,35.303,33.822,35.303h416.329
		c18.648,0,33.82-15.837,33.82-35.303v-356.56c0-6.429-1.677-12.728-4.849-18.219C737.131,674.05,726.302,667.663,714.341,667.663
		L714.341,667.663z"/>
</g>
<rect x="300.001" y="705.058" fill="#E6E6E6" width="412.354" height="333.833"/>
<path fill="#41444B" d="M372.428,861.396c0,10.186-5.016,19.194-12.699,24.681c-4.977,3.568-11.07,5.669-17.651,5.669
	c-7.077,0-13.609-2.428-18.769-6.506c-7.053-5.55-11.582-14.168-11.582-23.845c0-9.675,4.529-18.296,11.582-23.845
	c5.16-4.078,11.693-6.506,18.769-6.506c6.579,0,12.673,2.1,17.651,5.67C367.412,842.202,372.428,851.21,372.428,861.396z"/>
<path fill="#41444B" d="M372.428,944.127c0,4.578-1.02,8.923-2.84,12.819c-4.833,10.356-15.335,17.53-27.511,17.53
	c-16.765,0-30.351-13.594-30.351-30.35c0-9.675,4.529-18.296,11.582-23.844c5.16-4.078,11.693-6.506,18.769-6.506
	c6.579,0,12.673,2.1,17.651,5.668c0.484,0.34,0.972,0.703,1.432,1.082C368.031,926.087,372.428,934.595,372.428,944.127z"/>
<path fill="#41444B" d="M712.355,725.988v72.896H300.001v-72.896c0-11.563,8.894-20.93,19.872-20.93h372.607
	C703.452,705.058,712.355,714.425,712.355,725.988z"/>
<line fill="none" stroke="#41444B" stroke-width="47" stroke-linecap="round" stroke-miterlimit="10" x1="674.348" y1="861.395" x2="427.664" y2="861.396"/>
<line fill="none" stroke="#41444B" stroke-width="47" stroke-linecap="round" stroke-miterlimit="10" x1="674.348" y1="944.127" x2="427.664" y2="944.127"/>
<path fill="#41444B" d="M372.428,1026.83c0,4.578-1.02,8.923-2.84,12.819c-4.833,10.356-15.335,17.53-27.511,17.53
	c-16.765,0-30.351-13.594-30.351-30.35c0-9.675,4.529-18.296,11.582-23.844c5.16-4.078,11.693-6.506,18.769-6.506
	c6.579,0,12.673,2.1,17.651,5.668c0.484,0.34,0.972,0.703,1.432,1.082C368.031,1008.79,372.428,1017.299,372.428,1026.83z"/>
<line fill="none" stroke="#41444B" stroke-width="47" stroke-linecap="round" stroke-miterlimit="10" x1="674.348" y1="1026.83" x2="427.664" y2="1026.83"/>
</svg>
