<?xml version="1.0" encoding="utf-8"?>
<!-- Generator: Adobe Illustrator 16.0.3, SVG Export Plug-In . SVG Version: 6.00 Build 0)  -->
<!DOCTYPE svg PUBLIC "-//W3C//DTD SVG 1.1//EN" "http://www.w3.org/Graphics/SVG/1.1/DTD/svg11.dtd">
<svg version="1.1"
	 id="svg3715" xmlns:dc="http://purl.org/dc/elements/1.1/" xmlns:cc="http://creativecommons.org/ns#" xmlns:rdf="http://www.w3.org/1999/02/22-rdf-syntax-ns#" xmlns:svg="http://www.w3.org/2000/svg" xmlns:sodipodi="http://sodipodi.sourceforge.net/DTD/sodipodi-0.dtd" xmlns:inkscape="http://www.inkscape.org/namespaces/inkscape"
	 xmlns="http://www.w3.org/2000/svg" xmlns:xlink="http://www.w3.org/1999/xlink" x="0px" y="0px" width="600px" height="600px"
	 viewBox="0 0 600 600" enable-background="new 0 0 600 600" xml:space="preserve">
<path fill="#E6E6E6" d="M334.281,114.06c-1.63-4.521-3.62-8.86-5.931-12.98l43.939,0.08c25.65,0.05,46.41,20.89,46.36,46.54
	l-0.41,198.521L334.281,114.06z"/>
<path fill="#E6E6E6" d="M525.71,185.01L458.19,369.321l0.46-221.541c0.029-14.31-3.399-28.09-9.891-40.4l49.3,18.051
	C522.151,134.25,534.531,160.92,525.71,185.01z"/>
<defs>
	
	
		<inkscape:perspective  sodipodi:type="inkscape:persp3d" inkscape:vp_x="0 : 32 : 1" inkscape:vp_y="0 : 1000 : 0" inkscape:vp_z="64 : 32 : 1" id="perspective3723" inkscape:persp3d-origin="32 : 21.333333 : 1">
		</inkscape:perspective>
</defs>
<sodipodi:namedview  pagecolor="#ffffff" bordercolor="#666666" borderopacity="1.0" inkscape:zoom="5.5" inkscape:cx="-10.082463" inkscape:cy="25.822073" showgrid="true" id="base" inkscape:grid-bbox="true" inkscape:window-width="1280" inkscape:current-layer="layer1" inkscape:document-units="px" inkscape:pageopacity="0.0" inkscape:window-height="949" inkscape:window-y="25" inkscape:window-maximized="0" inkscape:pageshadow="2" inkscape:window-x="0">
	</sodipodi:namedview>
<g display="none">
	
		<linearGradient id="SVGID_1_" gradientUnits="userSpaceOnUse" x1="1032.6125" y1="547.533" x2="1032.6125" y2="487.1326" gradientTransform="matrix(9.375 0 0 -9.375 -9200.7441 5149.9893)">
		<stop  offset="0" style="stop-color:#6B6B6B"/>
		<stop  offset="0.471" style="stop-color:#686868"/>
		<stop  offset="0.8686" style="stop-color:#5D5D5D"/>
		<stop  offset="1" style="stop-color:#585858"/>
	</linearGradient>
	<path display="inline" fill="url(#SVGID_1_)" d="M480,583.125c-156.563,0-283.125-126.563-283.125-283.125
		c0-156.562,126.562-283.125,283.125-283.125c156.563,0,283.125,126.563,283.125,283.125
		C763.125,456.562,636.562,583.125,480,583.125z"/>
	<path display="inline" fill="#989898" d="M480,26.25c150.938,0,273.75,122.813,273.75,273.75
		c0,150.938-122.813,273.75-273.75,273.75c-150.938,0-273.75-122.812-273.75-273.75C206.25,149.062,329.062,26.25,480,26.25
		 M480,7.5C318.75,7.5,187.5,138.75,187.5,300S318.75,592.5,480,592.5S772.5,461.25,772.5,300S641.25,7.5,480,7.5L480,7.5z"/>
</g>
<g>
	<path fill="#E6E6E6" d="M366.42,457.091l-34.011,12.3l-29.25,10.591l2.75,1.01l-5.51-0.01l-26.5,9.579l-28.5,10.311h-0.01
		l-23.75,8.601c-5.22,1.891-10.56,2.78-15.8,2.78c-19.01,0-36.84-11.75-43.68-30.65l-30.881-85.391L64.53,211.65
		c-8.72-24.13,3.761-50.75,27.881-59.48l39.909-14.439l21.801-7.891h0.01l26.3-9.51l53.69-19.43l3.069-1.11
		c5.04-1.819,10.181-2.72,15.25-2.77c0.181-0.01,0.37-0.01,0.551-0.01c6.51,0,12.89,1.38,18.729,3.96h0.57l-0.08,0.22
		c6.38,2.89,12.1,7.22,16.63,12.74c3.3,3.989,5.97,8.6,7.83,13.739l97.619,269.94C403.02,421.73,390.539,448.36,366.42,457.091z"/>
	<path fill="#41444B" d="M271.72,100.97c0.17,0.069,0.33,0.14,0.49,0.22l0.08-0.22H271.72z"/>
</g>
</svg>
