<?xml version="1.0" encoding="utf-8"?>
<!-- Generator: Adobe Illustrator 16.0.3, SVG Export Plug-In . SVG Version: 6.00 Build 0)  -->
<!DOCTYPE svg PUBLIC "-//W3C//DTD SVG 1.1//EN" "http://www.w3.org/Graphics/SVG/1.1/DTD/svg11.dtd">
<svg version="1.1" id="Layer_1" xmlns="http://www.w3.org/2000/svg" xmlns:xlink="http://www.w3.org/1999/xlink" x="0px" y="0px"
	 width="600px" height="600px" viewBox="0 0 600 600" enable-background="new 0 0 600 600" xml:space="preserve">
<g id="svg3715" xmlns:dc="http://purl.org/dc/elements/1.1/" xmlns:cc="http://creativecommons.org/ns#" xmlns:rdf="http://www.w3.org/1999/02/22-rdf-syntax-ns#" xmlns:svg="http://www.w3.org/2000/svg" xmlns:sodipodi="http://sodipodi.sourceforge.net/DTD/sodipodi-0.dtd" xmlns:inkscape="http://www.inkscape.org/namespaces/inkscape" display="none">
	<defs  display="inline">
		
		
			<inkscape:perspective  sodipodi:type="inkscape:persp3d" inkscape:vp_x="0 : 32 : 1" inkscape:vp_y="0 : 1000 : 0" inkscape:vp_z="64 : 32 : 1" id="perspective3723" inkscape:persp3d-origin="32 : 21.333333 : 1">
			</inkscape:perspective>
	</defs>
	
		<sodipodi:namedview  pagecolor="#ffffff" bordercolor="#666666" borderopacity="1.0" inkscape:zoom="5.5" inkscape:cx="-10.082463" inkscape:cy="25.822073" showgrid="true" id="base" inkscape:grid-bbox="true" inkscape:window-width="1280" inkscape:current-layer="layer1" inkscape:document-units="px" inkscape:pageopacity="0.0" inkscape:window-height="949" inkscape:window-y="25" inkscape:window-maximized="0" inkscape:pageshadow="2" inkscape:window-x="0">
		</sodipodi:namedview>
	<g display="inline" opacity="0.5">
		
			<linearGradient id="SVGID_1_" gradientUnits="userSpaceOnUse" x1="1183.1858" y1="41.4949" x2="1183.1858" y2="101.8948" gradientTransform="matrix(9.375 0 0 9.375 -10612.3613 -372.1384)">
			<stop  offset="0" style="stop-color:#6B6B6B"/>
			<stop  offset="0.471" style="stop-color:#686868"/>
			<stop  offset="0.8686" style="stop-color:#5D5D5D"/>
			<stop  offset="1" style="stop-color:#585858"/>
		</linearGradient>
		<path fill="url(#SVGID_1_)" d="M480,583.125c-156.563,0-283.125-126.563-283.125-283.125
			c0-156.562,126.562-283.125,283.125-283.125c156.563,0,283.125,126.563,283.125,283.125
			C763.125,456.562,636.562,583.125,480,583.125z"/>
		<path fill="#989898" d="M480,26.25c150.938,0,273.75,122.813,273.75,273.75c0,150.938-122.813,273.75-273.75,273.75
			c-150.938,0-273.75-122.812-273.75-273.75C206.25,149.062,329.062,26.25,480,26.25 M480,7.5C318.75,7.5,187.5,138.75,187.5,300
			S318.75,592.5,480,592.5S772.5,461.25,772.5,300S641.25,7.5,480,7.5L480,7.5z"/>
	</g>
	<g display="inline" opacity="0.5">
		<path fill="#989898" d="M-244.688,276.563c0,48.75,0,96.563,0,145.313c0,4.688-0.938,10.313-2.813,14.063
			c-2.813,7.5-10.313,10.313-16.875,6.563c-3.75-1.875-7.5-4.688-10.313-7.5c-31.875-30.938-63.75-61.875-94.688-92.813
			c-2.813-2.813-4.688-3.75-8.438-3.75c-15,0-30,0-45,0c-12.188,0-17.813-5.625-17.813-17.813c0-29.062,0-58.124,0-86.249
			c0-11.25,5.625-16.875,16.875-16.875c15.938,0,30.938,0,46.875,0c1.875,0,4.688-0.938,6.563-2.813
			c31.875-30.938,63.75-61.875,95.625-93.75c4.688-3.75,8.438-8.438,15-8.438c7.5-0.938,12.188,1.875,15,8.438
			c0.938,3.75,1.875,7.5,1.875,11.25C-244.688,180-244.688,227.813-244.688,276.563L-244.688,276.563z"/>
		<path fill="#989898" d="M-46.875,276.563c-0.938,45.938-16.875,85.313-48.75,118.125c-12.188,12.187-26.25,22.5-42.188,30.937
			c-7.5,3.758-15,2.813-19.688-2.812c-4.688-4.688-5.625-13.126-0.938-18.75c1.875-2.813,4.688-4.688,7.5-5.625
			c29.063-15.938,51.563-39.375,63.75-70.313c16.875-44.063,13.125-86.25-13.125-126.563c-12.188-19.688-29.063-34.688-49.688-45
			c-4.688-2.813-9.375-6.563-10.313-12.188c-1.875-11.25,8.438-20.625,18.75-16.875c12.188,4.688,22.5,12.188,31.875,19.688
			c33.75,27.188,53.438,62.813,60,105.938c0,2.813,0.938,5.625,0.938,7.5C-47.813,267.188-47.813,271.875-46.875,276.563z"/>
		<path fill="#989898" d="M-107.813,282.188c-1.875,42.188-22.5,77.813-62.813,102.188c-7.5,4.688-15.938,2.813-20.625-3.75
			c-4.688-7.5-3.75-15,3.75-20.626c4.688-3.75,10.313-6.563,15-10.312c49.688-40.313,44.063-117.188-11.25-149.063
			c-6.563-3.75-11.25-8.438-10.313-16.875c0.938-9.375,10.313-15.938,19.688-12.188c13.125,5.625,24.375,15,34.688,26.25
			C-119.063,219.375-108.75,246.563-107.813,282.188z"/>
		<path fill="#989898" d="M-168.75,277.5c0,27.188-16.875,48.75-42.188,58.125c-9.375,2.813-17.813,0-20.625-8.438
			c-2.813-8.438,1.875-16.874,11.25-19.688c11.25-3.751,17.813-11.25,20.625-22.5c3.75-15-4.688-30-19.688-35.625
			c-4.688-1.875-9.375-3.75-11.25-8.438c-2.813-5.625-2.813-11.25,1.875-16.875c4.688-5.625,10.313-6.563,16.875-4.688
			C-187.5,226.875-168.75,251.25-168.75,277.5z"/>
	</g>
	<path display="inline" opacity="0.5" fill="#333333" enable-background="new    " d="M301.949,80.143c5.865,0,10.753,0,16.618,0
		c16.619,0,28.354,11.729,28.354,28.348c0,6.843,0,13.688,0,19.549c0.978,10.754,7.815,18.574,17.595,21.505
		c9.771,3.91,19.55,1.955,27.37-5.859c3.91-3.911,7.815-8.803,12.708-12.708c11.729-10.754,28.348-10.754,39.1,0
		c9.775,8.797,18.573,17.595,27.37,27.37c9.775,9.771,9.775,25.41,0.979,36.166c-3.91,4.89-8.802,8.8-13.688,13.687
		c-7.82,7.82-9.772,17.595-5.865,27.37c3.91,10.753,12.708,16.618,24.438,17.595c5.864,0,11.729,0,17.595,0
		c15.64,0,26.396,10.753,26.396,26.396c0,12.708,0,25.415,0,38.122c0,15.64-11.729,26.394-27.37,26.394c-5.865,0-12.708,0-18.573,0
		c-10.753,0.979-18.574,6.842-22.483,17.596c-3.906,9.774-1.956,19.553,5.865,27.37c3.91,3.909,7.82,7.818,11.73,11.729
		c9.771,10.751,11.729,26.394,1.955,37.146c-9.774,10.753-19.554,20.526-30.307,30.306c-10.752,8.798-27.37,7.815-37.145-0.979
		c-3.91-3.909-7.819-7.813-11.73-11.729c-8.797-8.799-18.568-10.753-30.302-6.845c-10.754,3.908-16.619,13.688-16.619,25.415
		c0,5.862,0,11.729,0,18.569c-0.979,14.663-12.708,25.415-27.37,25.415c-11.729,0-22.479,0-34.213,0
		c-15.64,0-27.365-10.752-28.347-26.392c0-5.866,0-12.709,0-18.574c0-11.73-5.865-19.55-15.64-23.46
		c-9.775-4.889-19.552-2.934-28.353,3.91c-3.906,3.91-7.815,7.814-12.709,11.729c-11.729,11.729-29.319,11.729-41.055,0
		c-8.798-7.814-17.595-16.618-25.415-25.415c-10.754-10.753-10.754-27.369,0-39.1c3.91-3.91,7.82-7.82,11.729-11.729
		c7.817-7.817,9.772-17.596,5.862-28.35c-3.908-9.774-11.729-15.645-23.459-16.616c-5.862,0-11.729,0-17.595,0
		c-18.573,0-30.303-11.73-30.303-30.305c0-10.752,0-20.526,0-31.278c0-16.618,11.729-28.348,28.348-29.325
		c5.865,0,11.729,0,17.595,0c11.73,0,20.528-5.865,24.439-16.618c3.91-10.753,1.955-20.523-5.865-28.349
		c-3.911-3.91-8.799-7.82-12.708-12.708c-9.772-11.729-9.772-27.37,0.979-38.124c7.816-7.82,16.614-16.617,24.438-24.437
		c12.707-12.709,29.325-12.709,43.01,0c3.91,3.904,6.847,7.815,10.752,10.752c7.82,7.815,17.6,9.771,28.354,4.889
		c10.753-4.889,15.641-12.709,16.619-24.439c0-7.815,0-14.66,0.977-22.479c1.956-13.688,13.688-23.46,27.37-23.46
		C290.224,80.143,296.089,80.143,301.949,80.143z M301.949,208.195c-50.826,0-91.885,41.055-91.885,91.885
		s41.06,91.885,91.885,91.885c49.854,0,91.89-41.055,91.89-90.902C393.839,250.228,352.781,208.195,301.949,208.195z"/>
</g>
<g id="Layer_2">
	<path fill="#E6E6E6" d="M343.411,365.985v131.846c0,16.172-13.108,29.288-29.289,29.288h-28.244
		c-16.183,0-29.289-13.116-29.289-29.288V365.985c8.212,5.408,17.48,9.331,27.437,11.381c5.159,1.057,10.503,1.61,15.975,1.61
		c5.471,0,10.815-0.554,15.973-1.61C325.933,375.316,335.2,371.393,343.411,365.985z"/>
	<path fill="#E6E6E6" d="M343.411,102.169v131.846c-8.212-5.408-17.479-9.331-27.438-11.381c-5.157-1.057-10.501-1.611-15.973-1.611
		c-5.471,0-10.816,0.554-15.975,1.611c-9.957,2.051-19.226,5.973-27.437,11.381V102.169c0-16.171,13.106-29.29,29.289-29.29h28.244
		C330.304,72.88,343.411,85.997,343.411,102.169z"/>
	<path fill="#E6E6E6" d="M284.027,222.634c-9.957,2.051-19.226,5.973-27.437,11.381c-8.976,5.91-16.665,13.599-22.575,22.574
		c-5.407,8.212-9.331,17.48-11.38,27.438l-27.438-27.438l-40.043-40.043l-25.732-25.734c-11.444-11.433-11.444-29.98,0-41.424
		l19.969-19.969c11.443-11.444,29.99-11.444,41.424,0l25.733,25.733l40.044,40.043L284.027,222.634z"/>
	<path fill="#E6E6E6" d="M470.579,450.612l-19.968,19.968c-11.445,11.444-29.992,11.444-41.425,0l-25.732-25.733l-40.044-40.043
		l-27.438-27.438c9.96-2.049,19.228-5.973,27.438-11.38c8.975-5.91,16.663-13.599,22.572-22.574
		c5.409-8.211,9.332-17.479,11.382-27.438l27.438,27.438l40.042,40.045l25.733,25.732
		C482.024,420.621,482.024,439.167,470.579,450.612z"/>
	<path fill="#E6E6E6" d="M222.634,315.972c2.051,9.959,5.974,19.228,11.381,27.438H102.17c-16.171,0-29.29-13.107-29.29-29.288
		v-28.244c0-16.183,13.118-29.29,29.29-29.29h131.845c-5.407,8.212-9.331,17.479-11.38,27.438
		c-1.058,5.158-1.612,10.503-1.612,15.974C221.023,305.471,221.577,310.815,222.634,315.972z"/>
	<path fill="#E6E6E6" d="M527.119,285.879v28.244c0,16.182-13.116,29.288-29.289,29.288H365.985
		c5.409-8.211,9.332-17.479,11.382-27.438c1.057-5.158,1.61-10.501,1.61-15.974c0-5.47-0.554-10.816-1.61-15.974
		c-2.05-9.958-5.974-19.226-11.382-27.438h131.847C514.003,256.589,527.119,269.695,527.119,285.879z"/>
	<path fill="#E6E6E6" d="M284.027,377.366l-27.437,27.438l-40.044,40.043l-25.733,25.733c-11.434,11.444-29.98,11.444-41.424,0
		l-19.969-19.968c-11.444-11.445-11.444-29.991,0-41.425l65.776-65.776l27.438-27.438c2.051,9.959,5.974,19.228,11.381,27.438
		c5.91,8.976,13.599,16.664,22.575,22.574C264.801,371.393,274.069,375.316,284.027,377.366z"/>
	<path fill="#E6E6E6" d="M470.579,190.812l-25.733,25.734l-40.042,40.043l-27.438,27.438c-2.05-9.958-5.974-19.226-11.381-27.438
		c-5.91-8.974-13.599-16.664-22.573-22.574c-8.212-5.408-17.479-9.331-27.438-11.381l27.438-27.438l65.775-65.776
		c11.433-11.444,29.979-11.444,41.425,0l19.968,19.969C482.024,160.831,482.024,179.379,470.579,190.812z"/>
	<path fill="#E6E6E6" d="M461.449,256.589c-3.809-14.186-9.426-27.616-16.603-40.043c-14.707-25.461-35.932-46.686-61.392-61.394
		c-12.427-7.176-25.859-12.794-40.044-16.6c-13.84-3.714-28.4-5.69-43.411-5.69c-15.012,0-29.573,1.977-43.411,5.69
		c-14.186,3.807-27.616,9.424-40.044,16.6c-25.461,14.708-46.685,35.933-61.394,61.394c-7.176,12.427-12.794,25.857-16.6,40.043
		c-3.714,13.839-5.69,28.4-5.69,43.411c0,15.012,1.977,29.572,5.69,43.411c3.807,14.185,9.424,27.617,16.6,40.045
		c14.709,25.46,35.933,46.685,61.394,61.392c12.427,7.177,25.858,12.794,40.044,16.603c13.838,3.712,28.399,5.69,43.411,5.69
		c15.011,0,29.571-1.979,43.411-5.69c14.185-3.809,27.617-9.426,40.044-16.603c25.46-14.707,46.685-35.932,61.392-61.392
		c7.177-12.428,12.794-25.86,16.603-40.045c3.712-13.839,5.69-28.399,5.69-43.411C467.14,284.989,465.161,270.427,461.449,256.589z
		 M300,378.976c-5.471,0-10.816-0.554-15.975-1.61c-9.957-2.05-19.226-5.974-27.437-11.381c-8.976-5.91-16.665-13.599-22.575-22.574
		c-5.407-8.211-9.331-17.479-11.381-27.438c-1.057-5.158-1.611-10.501-1.611-15.974c0-5.47,0.554-10.816,1.611-15.974
		c2.051-9.958,5.974-19.226,11.381-27.438c5.91-8.974,13.599-16.664,22.575-22.574c8.212-5.407,17.48-9.331,27.437-11.381
		c5.159-1.057,10.503-1.611,15.975-1.611c5.471,0,10.815,0.554,15.973,1.611c9.96,2.051,19.228,5.974,27.438,11.381
		c8.975,5.91,16.663,13.599,22.573,22.574c5.408,8.212,9.331,17.48,11.381,27.438c1.057,5.158,1.61,10.503,1.61,15.974
		c0,5.472-0.554,10.815-1.61,15.974c-2.05,9.959-5.974,19.228-11.381,27.438c-5.91,8.976-13.599,16.664-22.573,22.574
		c-8.212,5.408-17.479,9.331-27.438,11.381C310.816,378.423,305.472,378.976,300,378.976z"/>
</g>
</svg>
