<?xml version="1.0" encoding="utf-8"?>
<!-- Generator: Adobe Illustrator 16.0.3, SVG Export Plug-In . SVG Version: 6.00 Build 0)  -->
<!DOCTYPE svg PUBLIC "-//W3C//DTD SVG 1.1//EN" "http://www.w3.org/Graphics/SVG/1.1/DTD/svg11.dtd">
<svg version="1.1"
	 id="svg3715" xmlns:dc="http://purl.org/dc/elements/1.1/" xmlns:cc="http://creativecommons.org/ns#" xmlns:rdf="http://www.w3.org/1999/02/22-rdf-syntax-ns#" xmlns:svg="http://www.w3.org/2000/svg" xmlns:sodipodi="http://sodipodi.sourceforge.net/DTD/sodipodi-0.dtd" xmlns:inkscape="http://www.inkscape.org/namespaces/inkscape"
	 xmlns="http://www.w3.org/2000/svg" xmlns:xlink="http://www.w3.org/1999/xlink" x="0px" y="0px" width="600px" height="600px"
	 viewBox="0 0 600 600" enable-background="new 0 0 600 600" xml:space="preserve">
<defs>
	
	
		<inkscape:perspective  sodipodi:type="inkscape:persp3d" inkscape:vp_x="0 : 32 : 1" inkscape:vp_y="0 : 1000 : 0" inkscape:vp_z="64 : 32 : 1" id="perspective3723" inkscape:persp3d-origin="32 : 21.333333 : 1">
		</inkscape:perspective>
</defs>
<sodipodi:namedview  pagecolor="#ffffff" bordercolor="#666666" borderopacity="1.0" inkscape:zoom="5.5" inkscape:cx="-10.082463" inkscape:cy="25.822073" showgrid="true" id="base" inkscape:grid-bbox="true" inkscape:window-width="1280" inkscape:current-layer="layer1" inkscape:document-units="px" inkscape:pageopacity="0.0" inkscape:window-height="949" inkscape:window-y="25" inkscape:window-maximized="0" inkscape:pageshadow="2" inkscape:window-x="0">
	</sodipodi:namedview>
<g display="none">
	
		<linearGradient id="SVGID_1_" gradientUnits="userSpaceOnUse" x1="982.4221" y1="-9.8752" x2="982.4221" y2="50.5247" gradientTransform="matrix(9.375 0 0 9.375 -8730.2051 109.4553)">
		<stop  offset="0" style="stop-color:#6B6B6B"/>
		<stop  offset="0.471" style="stop-color:#686868"/>
		<stop  offset="0.8686" style="stop-color:#5D5D5D"/>
		<stop  offset="1" style="stop-color:#585858"/>
	</linearGradient>
	<path display="inline" fill="url(#SVGID_1_)" d="M480,583.125c-156.563,0-283.125-126.563-283.125-283.125
		c0-156.562,126.562-283.125,283.125-283.125c156.563,0,283.125,126.563,283.125,283.125
		C763.125,456.562,636.562,583.125,480,583.125z"/>
	<path display="inline" fill="#989898" d="M480,26.25c150.938,0,273.75,122.813,273.75,273.75
		c0,150.938-122.813,273.75-273.75,273.75c-150.938,0-273.75-122.812-273.75-273.75C206.25,149.062,329.062,26.25,480,26.25
		 M480,7.5C318.75,7.5,187.5,138.75,187.5,300S318.75,592.5,480,592.5S772.5,461.25,772.5,300S641.25,7.5,480,7.5L480,7.5z"/>
</g>
<path fill="#E6E6E6" d="M539.103,384.612c0,27.345-20.975,49.514-46.848,49.514H119.231c-25.873,0-46.848-22.169-46.848-49.514
	V144.445c0-27.346,20.975-49.514,46.848-49.514h373.024c25.873,0,46.848,22.168,46.848,49.514V384.612z"/>
<polygon fill="#E6E6E6" points="134.586,334.916 265.281,434.125 134.585,533.334 "/>
</svg>
