<?xml version="1.0" encoding="utf-8"?>
<!-- Generator: Adobe Illustrator 16.0.3, SVG Export Plug-In . SVG Version: 6.00 Build 0)  -->
<!DOCTYPE svg PUBLIC "-//W3C//DTD SVG 1.1//EN" "http://www.w3.org/Graphics/SVG/1.1/DTD/svg11.dtd">
<svg version="1.1"
	 id="svg3715" xmlns:dc="http://purl.org/dc/elements/1.1/" xmlns:cc="http://creativecommons.org/ns#" xmlns:rdf="http://www.w3.org/1999/02/22-rdf-syntax-ns#" xmlns:svg="http://www.w3.org/2000/svg" xmlns:sodipodi="http://sodipodi.sourceforge.net/DTD/sodipodi-0.dtd" xmlns:inkscape="http://www.inkscape.org/namespaces/inkscape"
	 xmlns="http://www.w3.org/2000/svg" xmlns:xlink="http://www.w3.org/1999/xlink" x="0px" y="0px" width="600px" height="600px"
	 viewBox="0 0 600 600" enable-background="new 0 0 600 600" xml:space="preserve">
<defs>
	
	
		<inkscape:perspective  sodipodi:type="inkscape:persp3d" inkscape:vp_x="0 : 32 : 1" inkscape:vp_y="0 : 1000 : 0" inkscape:vp_z="64 : 32 : 1" id="perspective3723" inkscape:persp3d-origin="32 : 21.333333 : 1">
		</inkscape:perspective>
</defs>
<sodipodi:namedview  pagecolor="#ffffff" bordercolor="#666666" borderopacity="1.0" inkscape:zoom="5.5" inkscape:cx="-10.082463" inkscape:cy="25.822073" showgrid="true" id="base" inkscape:grid-bbox="true" inkscape:window-width="1280" inkscape:current-layer="layer1" inkscape:document-units="px" inkscape:pageopacity="0.0" inkscape:window-height="949" inkscape:window-y="25" inkscape:window-maximized="0" inkscape:pageshadow="2" inkscape:window-x="0">
	</sodipodi:namedview>
<g display="none">
	
		<linearGradient id="SVGID_1_" gradientUnits="userSpaceOnUse" x1="1032.6125" y1="547.533" x2="1032.6125" y2="487.1326" gradientTransform="matrix(9.375 0 0 -9.375 -9200.7441 5149.9893)">
		<stop  offset="0" style="stop-color:#6B6B6B"/>
		<stop  offset="0.471" style="stop-color:#686868"/>
		<stop  offset="0.8686" style="stop-color:#5D5D5D"/>
		<stop  offset="1" style="stop-color:#585858"/>
	</linearGradient>
	<path display="inline" fill="url(#SVGID_1_)" d="M480,583.125c-156.563,0-283.125-126.563-283.125-283.125
		c0-156.562,126.562-283.125,283.125-283.125c156.563,0,283.125,126.563,283.125,283.125
		C763.125,456.562,636.562,583.125,480,583.125z"/>
	<path display="inline" fill="#989898" d="M480,26.25c150.938,0,273.75,122.813,273.75,273.75
		c0,150.938-122.813,273.75-273.75,273.75c-150.938,0-273.75-122.812-273.75-273.75C206.25,149.062,329.062,26.25,480,26.25
		 M480,7.5C318.75,7.5,187.5,138.75,187.5,300S318.75,592.5,480,592.5S772.5,461.25,772.5,300S641.25,7.5,480,7.5L480,7.5z"/>
</g>
<g>
	<g>
		<path fill="#E6E6E6" d="M448.01,101.18H137.54c-29.86,0-54.16,24.29-54.16,54.16v310.47c0,29.86,24.3,54.16,54.16,54.16h310.47
			c29.87,0,54.16-24.3,54.16-54.16V155.34C502.17,125.47,477.88,101.18,448.01,101.18z M230.07,361.929
			c-8.82-5.27-18.87-7.899-30.13-7.899c-12.38,0-22.36,3.89-29.95,11.66c-7.6,7.779-11.39,18.31-11.39,31.6
			c0,12.74,3.58,22.9,10.75,30.46c7.16,7.56,16.81,11.34,28.93,11.34c11.58,0,22.17-2.81,31.79-8.45v27.101
			c-9.62,4.66-22.17,6.979-37.67,6.979c-20.21,0-36.1-5.939-47.67-17.819c-11.58-11.881-17.37-27.71-17.37-47.49
			c0-21.07,6.51-38.16,19.52-51.26c13.02-13.11,29.91-19.66,50.67-19.66c12.86,0,23.7,1.62,32.52,4.87V361.929z M309.68,389.76
			h-21.13v38.03c0,9.8,3.89,14.7,11.67,14.7c3.06,0,6.22-0.891,9.459-2.66v21.49c-4.279,2.27-10.74,3.399-19.38,3.399
			c-20.46,0-30.68-10.62-30.68-31.87v-43.09h-15.25V368.36h15.25v-20.301l28.93-8.27v28.57h21.13V389.76z M390.04,394.54
			c-3.5-1.9-7.57-2.85-12.22-2.85c-6.311,0-11.24,2.31-14.79,6.939c-3.561,4.62-5.33,10.91-5.33,18.87v44.93h-29.03V368.36h29.03
			v17.449h0.37c4.59-12.739,12.859-19.109,24.8-19.109c3.06,0,5.45,0.37,7.17,1.109V394.54z M435.2,462.429h-29.03V323.16h29.03
			V462.429z"/>
	</g>
</g>
<g>
	<path fill="#41444B" d="M193.154,795.741c-9.614,4.655-22.171,6.981-37.665,6.981c-20.21,0-36.103-5.939-47.677-17.821
		c-11.575-11.881-17.363-27.712-17.363-47.494c0-21.067,6.508-38.154,19.521-51.26c13.013-13.105,29.902-19.66,50.663-19.66
		c12.861,0,23.701,1.624,32.52,4.869v28.569c-8.818-5.267-18.863-7.899-30.131-7.899c-12.372,0-22.354,3.89-29.948,11.666
		c-7.594,7.779-11.391,18.313-11.391,31.603c0,12.738,3.583,22.891,10.749,30.452c7.165,7.565,16.811,11.347,28.938,11.347
		c11.574,0,22.169-2.815,31.784-8.451L193.154,795.741L193.154,795.741z"/>
	<path fill="#41444B" d="M272.77,799.324c-4.286,2.266-10.748,3.398-19.384,3.398c-20.455,0-30.682-10.624-30.682-31.877V727.76
		h-15.25v-21.404h15.25v-20.301l28.937-8.27v28.569h21.129v21.403h-21.129v38.034c0,9.799,3.889,14.696,11.668,14.696
		c3.062,0,6.214-0.887,9.461-2.663V799.324z"/>
	<path fill="#41444B" d="M353.121,732.539c-3.49-1.897-7.563-2.849-12.219-2.849c-6.309,0-11.238,2.313-14.789,6.936
		c-3.553,4.625-5.328,10.918-5.328,18.879v44.923h-29.029v-94.07h29.029v17.455h0.367c4.594-12.738,12.861-19.108,24.805-19.108
		c3.063,0,5.449,0.368,7.164,1.104V732.539L353.121,732.539z"/>
	<path fill="#41444B" d="M398.287,800.427H369.26V661.159h29.027V800.427z"/>
</g>
</svg>
