<?xml version="1.0" encoding="utf-8"?>
<!-- Generator: Adobe Illustrator 16.0.3, SVG Export Plug-In . SVG Version: 6.00 Build 0)  -->
<!DOCTYPE svg PUBLIC "-//W3C//DTD SVG 1.1//EN" "http://www.w3.org/Graphics/SVG/1.1/DTD/svg11.dtd">
<svg version="1.1"
	 id="svg3715" xmlns:dc="http://purl.org/dc/elements/1.1/" xmlns:cc="http://creativecommons.org/ns#" xmlns:rdf="http://www.w3.org/1999/02/22-rdf-syntax-ns#" xmlns:svg="http://www.w3.org/2000/svg" xmlns:sodipodi="http://sodipodi.sourceforge.net/DTD/sodipodi-0.dtd" xmlns:inkscape="http://www.inkscape.org/namespaces/inkscape"
	 xmlns="http://www.w3.org/2000/svg" xmlns:xlink="http://www.w3.org/1999/xlink" x="0px" y="0px" width="600px" height="600px"
	 viewBox="0 0 600 600" enable-background="new 0 0 600 600" xml:space="preserve">
<defs>
	
	
		<inkscape:perspective  sodipodi:type="inkscape:persp3d" inkscape:vp_x="0 : 32 : 1" inkscape:vp_y="0 : 1000 : 0" inkscape:vp_z="64 : 32 : 1" id="perspective3723" inkscape:persp3d-origin="32 : 21.333333 : 1">
		</inkscape:perspective>
</defs>
<sodipodi:namedview  pagecolor="#ffffff" bordercolor="#666666" borderopacity="1.0" inkscape:zoom="5.5" inkscape:cx="-10.082463" inkscape:cy="25.822073" showgrid="true" id="base" inkscape:grid-bbox="true" inkscape:window-width="1280" inkscape:current-layer="layer1" inkscape:document-units="px" inkscape:pageopacity="0.0" inkscape:window-height="949" inkscape:window-y="25" inkscape:window-maximized="0" inkscape:pageshadow="2" inkscape:window-x="0">
	</sodipodi:namedview>
<g display="none">
	
		<linearGradient id="SVGID_1_" gradientUnits="userSpaceOnUse" x1="1032.6125" y1="547.533" x2="1032.6125" y2="487.1326" gradientTransform="matrix(9.375 0 0 -9.375 -9200.7441 5149.9893)">
		<stop  offset="0" style="stop-color:#6B6B6B"/>
		<stop  offset="1" style="stop-color:#585858"/>
	</linearGradient>
	<path display="inline" fill="url(#SVGID_1_)" d="M480,583.125c-156.563,0-283.125-126.563-283.125-283.125
		c0-156.562,126.562-283.125,283.125-283.125c156.563,0,283.125,126.563,283.125,283.125
		C763.125,456.562,636.562,583.125,480,583.125z"/>
	<path display="inline" fill="#989898" d="M480,26.25c150.938,0,273.75,122.813,273.75,273.75
		c0,150.938-122.813,273.75-273.75,273.75c-150.938,0-273.75-122.812-273.75-273.75C206.25,149.062,329.062,26.25,480,26.25
		 M480,7.5C318.75,7.5,187.5,138.75,187.5,300S318.75,592.5,480,592.5S772.5,461.25,772.5,300S641.25,7.5,480,7.5L480,7.5z"/>
</g>
<path fill="#E6E6E6" d="M300.354,120.324c-2.296,59.912-2.296,118.666-2.296,177.42v178.567c0,5.762-1.159,12.669-3.464,17.281
	c-3.454,9.212-12.667,12.677-20.733,8.064c-4.611-2.307-9.212-5.76-12.666-9.214c0,0-0.125-0.114-0.365-0.345
	c-4.884-4.57-58.327-54.351-115.057-95.575c-31.302-22.746-66.61-22.746-66.61-22.746c-14.973,0-21.891-6.907-21.891-21.891V245.897
	c0-13.825,6.918-20.732,20.743-20.732h11.697c12.823-1.711,35.319-6.803,56.062-21.87c43.385-31.532,84.861-68.072,104.143-85.549
	c3.756-3.735,7.523-7.492,11.279-11.248c5.76-4.612,10.36-10.372,18.426-10.372c9.213-1.147,14.973,2.306,18.427,10.372
	C299.205,111.111,300.354,115.722,300.354,120.324z"/>
<path fill="#E6E6E6" d="M557.718,298.892c-0.521,25.835-4.914,49.979-13.272,72.443c-9.9,26.606-25.385,50.845-46.628,72.714
	c-5.728,5.729-11.802,11.133-18.207,16.184c-9.475,7.471-19.68,14.211-30.614,20.2l-22.193-30.436
	c0.992-0.554,2.014-0.992,3.037-1.336c35.716-19.584,63.365-48.383,78.338-86.404c20.743-54.153,16.131-105.989-16.12-155.529
	c-14.984-24.197-35.716-42.623-61.071-55.3c-1.272-0.762-2.545-1.586-3.766-2.483l21.806-29.904
	c11.259,5.446,21.193,12.677,30.386,19.98c0.375,0.293,0.751,0.595,1.115,0.887c29.477,23.748,50.23,52.734,62.656,86.55
	c5.072,13.752,8.754,28.308,11.081,43.635c0,3.454,1.147,6.908,1.147,9.213C557.718,286.225,557.718,293.133,557.718,298.892z"/>
<path fill="#E6E6E6" d="M481.906,304.651c-2.224,49.979-25.856,92.468-71.934,122.276l-21.712-29.779
	c4.705-3.192,9.765-6.029,14.157-9.546c61.061-49.542,54.144-144-13.824-183.17c-0.438-0.25-0.866-0.501-1.283-0.762l22.108-30.321
	c12.251,6.918,23.154,16.528,33.316,27.619C468.081,227.471,480.747,262.028,481.906,304.651z"/>
<path fill="#E6E6E6" d="M405.978,300.051c0,29.068-15.693,52.9-40.267,66.183l-21.733-29.799
	c12.99-4.748,20.639-13.805,23.987-27.171c4.603-18.437-5.77-36.874-24.196-43.781c-0.396-0.158-0.793-0.324-1.189-0.491
	l22.987-31.51C389.156,245.48,405.978,271.503,405.978,300.051z"/>
</svg>
