<?xml version="1.0" encoding="utf-8"?>
<!-- Generator: Adobe Illustrator 16.0.3, SVG Export Plug-In . SVG Version: 6.00 Build 0)  -->
<!DOCTYPE svg PUBLIC "-//W3C//DTD SVG 1.1//EN" "http://www.w3.org/Graphics/SVG/1.1/DTD/svg11.dtd">
<svg version="1.1" id="Layer_1" xmlns="http://www.w3.org/2000/svg" xmlns:xlink="http://www.w3.org/1999/xlink" x="0px" y="0px"
	 width="64px" height="64px" viewBox="0 0 64 64" enable-background="new 0 0 64 64" xml:space="preserve">
<g id="Layer_2" display="none">
	<g display="inline">
		<path fill="#E6E6E6" d="M43.389,50.418c-3.318,0-7.088-0.969-9.168-2.355l-1.337-0.893l2.296-7.622l2.4,1.479
			c1.745,1.074,4.021,1.716,6.087,1.716c1.312,0,4.36-0.308,4.36-3.154c0-1.392-0.332-2.581-4.49-4.183
			c-2.344-0.828-9.637-3.414-9.637-10.87c0-6.168,5.16-10.645,12.268-10.645c4.155,0,6.777,1.135,7.971,1.811l1.563,0.884
			l-2.516,7.434l-2.267-1.236c-1.019-0.555-2.694-1.217-4.89-1.217c-2.737,0-3.713,1.295-3.713,2.507
			c0,1.287,0.336,2.261,4.815,3.996c4.354,1.681,9.354,4.471,9.354,11.194C56.488,44.814,52.438,50.418,43.389,50.418z"/>
	</g>
</g>
<g>
	<path fill="#E6E6E6" d="M51.5,6.5v51c0,2.21-1.79,4-4,4h-19c-1.54,0-3.33-0.86-4-2.14V57.76v-0.04v-0.17l1-2l2-1.54h16v-44h-16
		l-2-1.55l-1-1.96V6.28V6.26V4.99V4.5c0.09-0.01,0-2,4-2h19C49.71,2.5,51.5,4.29,51.5,6.5z"/>
</g>
<path fill="#E6E6E6" d="M62.74,6.79v50.44c0,2.369-1.92,4.289-4.29,4.289l-4.825-0.02c0.97-1.06,1.625-2.825,1.625-4.375
	l-0.02-3.115l0,0v-44l0,0l-0.105-3.385c0-1.54-0.54-3.065-1.5-4.125h4.825C60.82,2.5,62.74,4.42,62.74,6.79z"/>
<g id="layer2">
	<g>
		<g>
			<g>
				<polygon fill="#E6E6E6" points="41,32 37,36.84 36.58,37.35 34.93,39.36 33.27,41.36 30.44,44.81 30,45.34 27,48.99 
					26.65,49.41 24.99,51.41 23.5,53.22 23.49,53.23 23.34,53.42 20.32,57.09 17.77,60.17 17.77,45.29 -1.5,45.29 -1.5,18.71 
					17.77,18.71 17.77,3.85 20.31,6.92 23.34,10.59 23.49,10.78 23.5,10.79 24.99,12.59 26.65,14.6 27,15.02 30,18.66 30.44,19.19 
					33.27,22.64 34.93,24.64 36.58,26.65 37,27.16 				"/>
			</g>
		</g>
	</g>
</g>
</svg>
