<?xml version="1.0" encoding="utf-8"?>
<!-- Generator: Adobe Illustrator 16.0.3, SVG Export Plug-In . SVG Version: 6.00 Build 0)  -->
<!DOCTYPE svg PUBLIC "-//W3C//DTD SVG 1.1//EN" "http://www.w3.org/Graphics/SVG/1.1/DTD/svg11.dtd">
<svg version="1.1" id="Layer_1" xmlns="http://www.w3.org/2000/svg" xmlns:xlink="http://www.w3.org/1999/xlink" x="0px" y="0px"
	 width="64px" height="64px" viewBox="0 0 64 64" enable-background="new 0 0 64 64" xml:space="preserve">
<g id="Layer_2" display="none">
	<g display="inline">
		<path fill="#E6E6E6" d="M43.389,50.418c-3.318,0-7.088-0.969-9.168-2.355l-1.337-0.893l2.296-7.622l2.4,1.479
			c1.745,1.074,4.021,1.716,6.087,1.716c1.312,0,4.36-0.308,4.36-3.154c0-1.392-0.332-2.581-4.49-4.183
			c-2.344-0.828-9.637-3.414-9.637-10.87c0-6.168,5.16-10.645,12.268-10.645c4.155,0,6.777,1.135,7.971,1.811l1.563,0.884
			l-2.517,7.434l-2.267-1.236c-1.019-0.555-2.694-1.217-4.89-1.217c-2.737,0-3.713,1.295-3.713,2.507
			c0,1.287,0.336,2.261,4.814,3.996c4.354,1.681,9.354,4.471,9.354,11.194C56.488,44.814,52.438,50.418,43.389,50.418z"/>
	</g>
</g>
<path fill="#E6E6E6" d="M58.63,2.5H29.29c-2.27,0-4.11,1.79-4.11,4v0.04l1.24,1.5l0.03,0.03l0.03,0.04l0.09,0.12l0.01,0.01l1.49,1.8
	l1.65,2l0.37,0.44l2.99,3.62l0.1,0.12V10.5H54.74v43.02H33.18v-5.75l-0.09,0.11l-3.02,3.67l-0.34,0.41l-1.65,1.99l-1.49,1.81
	l-0.03,0.03l-0.09,0.12l-0.02,0.02l-0.02,0.03l-1.25,1.521v0.039c0,2.211,1.84,4,4.11,4h29.34c2.271,0,4.11-1.789,4.11-4V6.5
	C62.74,4.29,60.9,2.5,58.63,2.5z"/>
<g id="layer2">
	<g>
		<g>
			<g>
				<g>
					<polygon fill="#E6E6E6" points="41,32 37,36.84 36.58,37.35 34.93,39.36 33.27,41.36 33.18,41.47 30.44,44.81 30,45.34 
						27,48.99 26.65,49.41 25.18,51.18 24.99,51.41 23.5,53.22 23.49,53.23 23.34,53.42 20.32,57.09 17.77,60.17 17.77,45.29 
						-1.5,45.29 -1.5,18.71 17.77,18.71 17.77,3.85 20.31,6.92 23.34,10.59 23.49,10.78 23.5,10.79 24.99,12.59 25.18,12.82 
						26.65,14.6 27,15.02 30,18.66 30.44,19.19 33.18,22.53 33.27,22.64 34.93,24.64 36.58,26.65 37,27.16 					"/>
				</g>
			</g>
		</g>
	</g>
</g>
</svg>
