<?xml version="1.0" encoding="utf-8"?>
<!-- Generator: Adobe Illustrator 16.0.3, SVG Export Plug-In . SVG Version: 6.00 Build 0)  -->
<!DOCTYPE svg PUBLIC "-//W3C//DTD SVG 1.1//EN" "http://www.w3.org/Graphics/SVG/1.1/DTD/svg11.dtd">
<svg version="1.1" id="Layer_1" xmlns="http://www.w3.org/2000/svg" xmlns:xlink="http://www.w3.org/1999/xlink" x="0px" y="0px"
	 width="16px" height="16px" viewBox="0 0 16 16" enable-background="new 0 0 16 16" xml:space="preserve">
<path fill="#34363A" d="M2,16c-0.827,0-1.5-0.673-1.5-1.5v-12C0.5,1.673,1.173,1,2,1h12c0.826,0,1.5,0.673,1.5,1.5v12
	c0,0.827-0.674,1.5-1.5,1.5H2z"/>
<path fill="#828790" d="M14,1c0.551,0,1,0.449,1,1v12c0,0.553-0.449,1-1,1H2c-0.551,0-1-0.447-1-1V2c0-0.551,0.449-1,1-1H14 M14,0H2
	C0.896,0,0,0.896,0,2v12c0,1.104,0.896,2,2,2h12c1.105,0,2-0.896,2-2V2C16,0.896,15.105,0,14,0L14,0z"/>
</svg>
