<?xml version="1.0" encoding="utf-8"?>
<!-- Generator: Adobe Illustrator 16.0.3, SVG Export Plug-In . SVG Version: 6.00 Build 0)  -->
<!DOCTYPE svg PUBLIC "-//W3C//DTD SVG 1.1//EN" "http://www.w3.org/Graphics/SVG/1.1/DTD/svg11.dtd">
<svg version="1.1"
	 id="svg2646" xmlns:dc="http://purl.org/dc/elements/1.1/" xmlns:cc="http://creativecommons.org/ns#" xmlns:rdf="http://www.w3.org/1999/02/22-rdf-syntax-ns#" xmlns:svg="http://www.w3.org/2000/svg" xmlns:sodipodi="http://sodipodi.sourceforge.net/DTD/sodipodi-0.dtd" xmlns:inkscape="http://www.inkscape.org/namespaces/inkscape" inkscape:version="0.47pre4 r22446" sodipodi:docname="remove_row.svg" inkscape:output_extension="org.inkscape.output.svg.inkscape" sodipodi:version="0.32"
	 xmlns="http://www.w3.org/2000/svg" xmlns:xlink="http://www.w3.org/1999/xlink" x="0px" y="0px" width="50px" height="50px"
	 viewBox="0 0 50 50" enable-background="new 0 0 50 50" xml:space="preserve">
<defs>
	
	
		<inkscape:perspective  sodipodi:type="inkscape:persp3d" inkscape:vp_x="0 : 526.18109 : 1" inkscape:vp_y="0 : 1000 : 0" inkscape:vp_z="744.09448 : 526.18109 : 1" id="perspective2654" inkscape:persp3d-origin="372.04724 : 350.78739 : 1">
		</inkscape:perspective>
</defs>
<sodipodi:namedview  pagecolor="#ffffff" bordercolor="#666666" borderopacity="1.0" inkscape:zoom="7.625" inkscape:cx="12.656427" inkscape:cy="31.784541" showgrid="false" id="base" inkscape:window-maximized="1" inkscape:pageopacity="0.0" inkscape:pageshadow="2" inkscape:document-units="px" inkscape:current-layer="layer2" inkscape:window-width="1280" inkscape:window-height="725" inkscape:window-x="0" inkscape:window-y="25">
	</sodipodi:namedview>
<g id="layer1" inkscape:label="Ebene 1" inkscape:groupmode="layer">
</g>
<g display="none">
	<path display="inline" fill="#E6E6E6" d="M37.896,8.826c1.808,0,3.276,1.471,3.276,3.278v25.792c0,1.808-1.47,3.277-3.276,3.277
		H12.105c-1.808,0-3.278-1.471-3.278-3.277V12.104c0-1.808,1.471-3.278,3.278-3.278H37.896 M37.896,5.826H12.105
		c-3.468,0-6.278,2.811-6.278,6.278v25.792c0,3.467,2.811,6.277,6.278,6.277h25.792c3.469,0,6.277-2.811,6.277-6.277V12.104
		C44.174,8.636,41.364,5.826,37.896,5.826L37.896,5.826z"/>
</g>
<path fill="#78787D" d="M44.656,38.179c1.904,1.905,1.904,4.991,0,6.893l0,0c-1.902,1.905-4.989,1.905-6.894,0L5.343,12.652
	c-1.903-1.905-1.903-4.99,0-6.895l0,0c1.905-1.903,4.99-1.903,6.895,0L44.656,38.179z"/>
<path fill="#78787D" d="M12.236,45.071c-1.905,1.902-4.99,1.902-6.894,0l0,0c-1.903-1.905-1.903-4.991,0-6.895l32.42-32.42
	c1.905-1.903,4.991-1.903,6.896,0l0,0c1.901,1.905,1.901,4.99,0,6.894L12.236,45.071z"/>
</svg>
