<?xml version="1.0" encoding="utf-8"?>
<!-- Generator: Adobe Illustrator 16.0.3, SVG Export Plug-In . SVG Version: 6.00 Build 0)  -->
<!DOCTYPE svg PUBLIC "-//W3C//DTD SVG 1.1//EN" "http://www.w3.org/Graphics/SVG/1.1/DTD/svg11.dtd">
<svg version="1.1" id="Layer_1" xmlns="http://www.w3.org/2000/svg" xmlns:xlink="http://www.w3.org/1999/xlink" x="0px" y="0px"
	 width="48px" height="48px" viewBox="0 0 48 48" enable-background="new 0 0 48 48" xml:space="preserve">
<g id="surface1">
	<path fill="#2C2D32" d="M24,6c-6.602,0-12,5.398-12,12v2c-2.211,0-4,1.789-4,4v20c0,2.211,1.789,4,4,4h24c2.211,0,4-1.789,4-4V24
		c0-2.211-1.789-4-4-4v-2C36,11.398,30.602,6,24,6z M24,10c4.438,0,8,3.563,8,8v2H16v-2C16,13.563,19.555,10,24,10z M23.938,23.938
		c5.992,0,6.063,4.46,6.063,5.313c0,4.47-4.875,4.72-4.625,8.625h-3.5c-0.297-5.242,4.188-5.478,4.188-8.438
		c0-2.125-1.432-2.313-2.125-2.313c-2.078,0-2.18,1.969-2.188,2.375h-3.938C17.82,28.555,18.016,23.938,23.938,23.938z
		 M23.688,39.938c1.984,0,2.188,1.828,2.188,2.125c0,0.289-0.203,2.063-2.188,2.063c-2.055,0-2.188-1.772-2.188-2.063
		C21.5,41.766,21.672,39.938,23.688,39.938z"/>
</g>
</svg>
