<?xml version="1.0" encoding="utf-8"?>
<!-- Generator: Adobe Illustrator 16.0.3, SVG Export Plug-In . SVG Version: 6.00 Build 0)  -->
<!DOCTYPE svg PUBLIC "-//W3C//DTD SVG 1.1//EN" "http://www.w3.org/Graphics/SVG/1.1/DTD/svg11.dtd">
<svg version="1.1" xmlns="http://www.w3.org/2000/svg" xmlns:xlink="http://www.w3.org/1999/xlink" x="0px" y="0px" width="100px"
	 height="100px" viewBox="0 0 100 100" enable-background="new 0 0 100 100" xml:space="preserve">
<g id="svg2858" xmlns:dc="http://purl.org/dc/elements/1.1/" xmlns:cc="http://creativecommons.org/ns#" xmlns:rdf="http://www.w3.org/1999/02/22-rdf-syntax-ns#" xmlns:svg="http://www.w3.org/2000/svg" xmlns:sodipodi="http://sodipodi.sourceforge.net/DTD/sodipodi-0.dtd" xmlns:inkscape="http://www.inkscape.org/namespaces/inkscape" sodipodi:docname="info.svg" inkscape:version="0.48.5 r10040">
	<g display="none">
		<path display="inline" fill="#050505" d="M160.934,26.21c0,3.41-0.801,6.54-2.41,9.41c-1.601,2.86-4.699,6.34-9.289,10.43
			c-3.11,2.72-5.142,4.729-6.11,6.04c-0.96,1.311-1.67,2.811-2.14,4.521c-0.461,1.658-0.721,4.34-0.78,8.06
			c0,0.091,0,0.17-0.011,0.261c-0.141,2.359-2.129,4.229-4.579,4.229c-2.44,0-4.44-1.87-4.58-4.229h-0.011
			c-0.051-1.279-0.08-2.24-0.08-2.881c0-3.75,0.551-6.99,1.631-9.699c0.738-2.07,2-4.149,3.779-6.221
			c1.229-1.53,3.5-3.75,6.811-6.66c3.311-2.92,5.45-5.24,6.439-6.96c0.99-1.73,1.479-3.63,1.479-5.7c0-3.71-1.44-6.96-4.33-9.78
			c-2.89-2.81-6.43-4.22-10.62-4.22c-4.1,0-7.51,1.29-10.22,3.85c-2.67,2.54-5.011,4.95-5.29,11.71c0.15,2.26-1.561,4.7-4.21,4.7
			c-2.71,0-5.271-1.73-5.271-4.45v-0.18c0-6.8,3.109-13.79,7.479-17.66c4.37-3.88,10.149-5.82,17.358-5.82
			c7.552,0,13.602,2.08,18.142,6.22C158.663,15.33,160.934,20.34,160.934,26.21z"/>
		<path display="inline" fill="#050505" d="M142.143,79.51c0,3.48-2.818,6.311-6.31,6.311s-6.31-2.829-6.31-6.311
			c0-3.49,2.818-6.31,6.31-6.31S142.143,76.02,142.143,79.51z"/>
	</g>
	<path fill="#E6E6E6" d="M93.332,50c0,23.929-19.403,43.332-43.332,43.332C26.072,93.332,6.668,73.929,6.668,50
		C6.668,26.072,26.072,6.668,50,6.668C73.929,6.668,93.332,26.072,93.332,50z"/>
</g>
<g id="Capa_1">
	<g>
		<g>
			<path fill="#41444B" d="M50,41.477c-4.784,0-8.646,4.121-8.646,9.224v26.525c0,5.089,3.862,9.223,8.646,9.223
				s8.647-4.134,8.647-9.223V50.701C58.647,45.598,54.784,41.477,50,41.477z"/>
		</g>
	</g>
	<g>
		<g>
			<path fill="#41444B" d="M50,15.349c4.782,0,8.647,3.875,8.647,8.646c0,4.771-3.865,8.645-8.647,8.645
				c-4.781,0-8.646-3.875-8.646-8.645C41.354,19.223,45.219,15.349,50,15.349z"/>
		</g>
	</g>
</g>
</svg>
