<?xml version="1.0" encoding="utf-8"?>
<!-- Generator: Adobe Illustrator 16.0.3, SVG Export Plug-In . SVG Version: 6.00 Build 0)  -->
<!DOCTYPE svg PUBLIC "-//W3C//DTD SVG 1.1//EN" "http://www.w3.org/Graphics/SVG/1.1/DTD/svg11.dtd">
<svg version="1.1"
	 id="svg1931" xmlns:dc="http://purl.org/dc/elements/1.1/" xmlns:cc="http://creativecommons.org/ns#" xmlns:rdf="http://www.w3.org/1999/02/22-rdf-syntax-ns#" xmlns:svg="http://www.w3.org/2000/svg" xmlns:sodipodi="http://sodipodi.sourceforge.net/DTD/sodipodi-0.dtd" xmlns:inkscape="http://www.inkscape.org/namespaces/inkscape" sodipodi:docname="lock.svg" inkscape:version="0.48.5 r10040" sodipodi:version="0.32"
	 xmlns="http://www.w3.org/2000/svg" xmlns:xlink="http://www.w3.org/1999/xlink" x="0px" y="0px" width="128px" height="128px"
	 viewBox="0 0 128 128" enable-background="new 0 0 128 128" xml:space="preserve">
<path fill="#FFEB5C" d="M95.99,40.5v35.31H83.66V40.5c0-10.84-8.82-19.66-19.66-19.66S44.35,29.66,44.35,40.5v35.31H32.02V40.5
	C32.02,22.86,46.36,8.51,64,8.51C81.64,8.51,95.99,22.86,95.99,40.5z"/>
<path id="rect1941" fill="#FFEB5C" d="M28,57.585h72.719c0.254,0,0.457,0.205,0.457,0.457v59.685c0,0.252-0.203,0.457-0.457,0.457
	H28c-0.252,0-0.458-0.205-0.458-0.457V58.042C27.542,57.79,27.747,57.585,28,57.585z"/>
</svg>
