<?xml version="1.0" encoding="utf-8"?>
<!-- Generator: Adobe Illustrator 16.0.3, SVG Export Plug-In . SVG Version: 6.00 Build 0)  -->
<!DOCTYPE svg PUBLIC "-//W3C//DTD SVG 1.1//EN" "http://www.w3.org/Graphics/SVG/1.1/DTD/svg11.dtd">
<svg version="1.1" id="Layer_1" xmlns="http://www.w3.org/2000/svg" xmlns:xlink="http://www.w3.org/1999/xlink" x="0px" y="0px"
	 width="64px" height="64px" viewBox="0 0 64 64" enable-background="new 0 0 64 64" xml:space="preserve">
<path display="none" fill="#E6E6E6" d="M31.49,52.3l24.88-26.11v27.93c0,3.87-3.14,7-7,7H10.8c-3.86,0-7-3.13-7-7V14.34
	c0-3.87,3.14-7,7-7h27.171L11.73,32.52l-1.09,1.051l-0.13,1.5L9.16,50.871L8.75,55.7l4.83-0.521l15.44-1.66l1.46-0.16L31.49,52.3z"
	/>
<rect x="22.81" y="12.695" transform="matrix(-0.7071 -0.7071 0.7071 -0.7071 29.696 78.6064)" fill="#E6E6E6" width="16.634" height="40.918"/>
<path fill="#E6E6E6" d="M57.72,18.322l-3.917,3.917L42.04,10.478l3.917-3.917c1.721-1.721,4.403-1.826,5.978-0.251l6.036,6.035
	C59.554,13.926,59.441,16.602,57.72,18.322z"/>
<polygon fill="#E6E6E6" points="8.121,44.396 19.882,56.16 4.239,60.046 "/>
</svg>
