<?xml version="1.0" encoding="utf-8"?>
<!-- Generator: Adobe Illustrator 16.0.3, SVG Export Plug-In . SVG Version: 6.00 Build 0)  -->
<!DOCTYPE svg PUBLIC "-//W3C//DTD SVG 1.1//EN" "http://www.w3.org/Graphics/SVG/1.1/DTD/svg11.dtd">
<svg version="1.1"
	 id="svg2508" xmlns:dc="http://purl.org/dc/elements/1.1/" xmlns:cc="http://creativecommons.org/ns#" xmlns:rdf="http://www.w3.org/1999/02/22-rdf-syntax-ns#" xmlns:svg="http://www.w3.org/2000/svg" xmlns:sodipodi="http://sodipodi.sourceforge.net/DTD/sodipodi-0.dtd" xmlns:inkscape="http://www.inkscape.org/namespaces/inkscape" inkscape:output_extension="org.inkscape.output.svg.inkscape" sodipodi:docname="icon_player.svg" inkscape:version="0.48.5 r10040" sodipodi:version="0.32"
	 xmlns="http://www.w3.org/2000/svg" xmlns:xlink="http://www.w3.org/1999/xlink" x="0px" y="0px" width="64px" height="64px"
	 viewBox="0 0 64 64" enable-background="new 0 0 64 64" xml:space="preserve">
<defs>
	
	
		<inkscape:perspective  id="perspective2516" inkscape:vp_z="64 : 32 : 1" inkscape:vp_y="0 : 1000 : 0" inkscape:vp_x="0 : 32 : 1" sodipodi:type="inkscape:persp3d" inkscape:persp3d-origin="32 : 21.333333 : 1">
		</inkscape:perspective>
</defs>
<sodipodi:namedview  showgrid="true" inkscape:cy="33.231713" inkscape:cx="35.570639" inkscape:zoom="7.7781746" borderopacity="1.0" bordercolor="#666666" pagecolor="#ffffff" id="base" inkscape:window-maximized="0" inkscape:window-y="35" inkscape:window-x="619" inkscape:window-height="725" inkscape:window-width="1280" inkscape:grid-bbox="true" inkscape:document-units="px" inkscape:current-layer="g2536" inkscape:pageshadow="2" inkscape:pageopacity="0.0">
	</sodipodi:namedview>
<g id="layer1" inkscape:label="Layer 1" inkscape:groupmode="layer">
	<g id="g2536" transform="translate(-0.1818183,-3.0952293e-8)">
		
			<path id="path5116" sodipodi:nodetypes="cccccscsscsccccc" inkscape:connector-curvature="0" fill="#E6E6E6" stroke="#E6E6E6" stroke-width="3.492" stroke-linecap="round" d="
			M60.101,4.081l-8.926,4.067c-10.033,11.355-19.988,23.625-32.14,34.249c-2.112-2.407-4.873-6.047-6.443-8.767L7.41,38.849
			c0,0,4.186,1.798,5.363,2.627c1.177,0.829,3.64,3.137,3.64,3.137S9.416,54.457,3.595,56.016c-1.873,0.502,4.069,6.443,4.571,4.571
			c1.558-5.813,11.147-13.589,11.147-13.589s2.672,3.127,3.501,4.303c0.829,1.178,2.519,5.471,2.519,5.471l5.219-5.182
			c-2.722-1.572-6.208-4.088-8.602-6.186c10.496-11.711,21.25-20.882,34.083-32.397L60.101,4.081z"/>
	</g>
</g>
</svg>
