<?xml version="1.0" encoding="utf-8"?>
<!-- Generator: Adobe Illustrator 16.0.3, SVG Export Plug-In . SVG Version: 6.00 Build 0)  -->
<!DOCTYPE svg PUBLIC "-//W3C//DTD SVG 1.1//EN" "http://www.w3.org/Graphics/SVG/1.1/DTD/svg11.dtd">
<svg version="1.1" id="Layer_1" xmlns="http://www.w3.org/2000/svg" xmlns:xlink="http://www.w3.org/1999/xlink" x="0px" y="0px"
	 width="20px" height="20px" viewBox="0 0 20 20" enable-background="new 0 0 20 20" xml:space="preserve">
<g>
	<path fill="#202225" d="M9.984,18.965c-4.952,0-8.981-4.028-8.981-8.98s4.029-8.981,8.981-8.981s8.98,4.029,8.98,8.981
		S14.937,18.965,9.984,18.965z"/>
	<path fill="#808080" d="M9.984,2.003c4.4,0,7.98,3.58,7.98,7.981c0,4.4-3.58,7.98-7.98,7.98c-4.401,0-7.981-3.58-7.981-7.98
		C2.003,5.583,5.583,2.003,9.984,2.003 M9.984,0.003c-5.512,0-9.981,4.469-9.981,9.981c0,5.513,4.469,9.98,9.981,9.98
		c5.513,0,9.98-4.468,9.98-9.98C19.965,4.472,15.497,0.003,9.984,0.003L9.984,0.003z"/>
</g>
</svg>
