<?xml version="1.0" encoding="utf-8"?>
<!-- Generator: Adobe Illustrator 16.0.3, SVG Export Plug-In . SVG Version: 6.00 Build 0)  -->
<!DOCTYPE svg PUBLIC "-//W3C//DTD SVG 1.1//EN" "http://www.w3.org/Graphics/SVG/1.1/DTD/svg11.dtd">
<svg version="1.1" id="Layer_1" xmlns="http://www.w3.org/2000/svg" xmlns:xlink="http://www.w3.org/1999/xlink" x="0px" y="0px"
	 width="20px" height="20px" viewBox="0 0 20 20" enable-background="new 0 0 20 20" xml:space="preserve">
<g>
	<path fill="#7BC5EA" d="M9.992,18.984C5.034,18.984,1,14.951,1,9.992C1,5.034,5.034,1,9.992,1c4.959,0,8.992,4.034,8.992,8.992
		C18.984,14.951,14.951,18.984,9.992,18.984z"/>
	<path fill="#808080" d="M9.992,2c4.406,0,7.992,3.585,7.992,7.992c0,4.406-3.586,7.992-7.992,7.992C5.585,17.984,2,14.398,2,9.992
		C2,5.585,5.585,2,9.992,2 M9.992,0C4.474,0,0,4.474,0,9.992c0,5.52,4.474,9.992,9.992,9.992c5.52,0,9.992-4.473,9.992-9.992
		C19.984,4.474,15.512,0,9.992,0L9.992,0z"/>
</g>
</svg>
