<?xml version="1.0" encoding="utf-8"?>
<!-- Generator: Adobe Illustrator 16.0.3, SVG Export Plug-In . SVG Version: 6.00 Build 0)  -->
<!DOCTYPE svg PUBLIC "-//W3C//DTD SVG 1.1//EN" "http://www.w3.org/Graphics/SVG/1.1/DTD/svg11.dtd">
<svg version="1.1" id="Layer_1" xmlns="http://www.w3.org/2000/svg" xmlns:xlink="http://www.w3.org/1999/xlink" x="0px" y="0px"
	 width="52px" height="52px" viewBox="0 0 52 52" enable-background="new 0 0 52 52" xml:space="preserve">
<path fill="#E6E6E6" d="M41.756,9c-0.57,0-1.111,0.21-1.471,0.62c-0.6-0.24-1.279-0.6-2.029-0.99c-1.512-0.75-3.291-1.59-5.361-1.59
	c-1.91,0-3.299,0.73-4.25,1.54c-0.41-0.46-0.939-0.79-1.539-1c-1.11-0.29-1.11-0.29-2.21,0c-0.6,0.21-1.12,0.54-1.54,1
	c-0.95-0.81-2.33-1.54-4.25-1.54c-2.07,0-3.85,0.84-5.35,1.59c-0.76,0.39-1.43,0.75-2.04,0.99C11.355,9.21,10.825,9,10.245,9
	c-1.1,0-1.97,0.88-1.97,1.98s0.87,1.96,1.97,1.96c0.91,0,1.67-0.59,1.91-1.42c0.82-0.31,1.63-0.75,2.46-1.17
	c1.45-0.72,2.96-1.35,4.49-1.35c1.79,0,2.81,0.81,3.39,1.48c-0.03,0.17-0.06,0.33-0.06,0.5c0,1.96,1.6,3.56,3.57,3.56
	c1.96,0,3.569-1.6,3.569-3.56c0-0.17-0.039-0.33-0.068-0.5c0.58-0.67,1.6-1.48,3.389-1.48c1.531,0,3.041,0.63,4.49,1.35
	c0.83,0.42,1.641,0.86,2.471,1.17c0.24,0.83,1,1.42,1.9,1.42c1.1,0,1.969-0.86,1.969-1.96S42.855,9,41.756,9z"/>
<path fill="#E6E6E6" d="M49.324,30.64l-6.639-17.66c-0.17-0.46-0.641-0.71-1.111-0.63h-0.129c-0.291,0.11-0.51,0.34-0.609,0.63
	l-6.65,17.66h-2.271c1.441,4.07,5.281,7.021,9.842,7.021c4.568,0,8.408-2.95,9.85-7.021H49.324z M36.285,30.64l5.471-14.47
	l5.479,14.47H36.285z"/>
<path fill="#E6E6E6" d="M17.815,30.64l-6.65-17.66c-0.17-0.46-0.64-0.71-1.11-0.63h-0.12c-0.29,0.11-0.52,0.34-0.61,0.63
	l-6.65,17.66h-2.28c1.45,4.07,5.29,7.021,9.85,7.021s8.4-2.95,9.85-7.021H17.815z M4.765,30.64l5.48-14.47l5.48,14.47H4.765z"/>
<path fill="#E6E6E6" d="M37.824,44.24v1.97H14.185v-1.97c0-1.08,0.88-1.971,1.97-1.971h7.85V36.99c0.01,0,0.02-0.01,0.03-0.01V13.9
	c3.93,0,0,0,3.93,0v28.37h7.881C36.936,42.27,37.824,43.16,37.824,44.24z"/>
</svg>
