<?xml version="1.0" encoding="utf-8"?>
<!-- Generator: Adobe Illustrator 16.0.3, SVG Export Plug-In . SVG Version: 6.00 Build 0)  -->
<!DOCTYPE svg PUBLIC "-//W3C//DTD SVG 1.1//EN" "http://www.w3.org/Graphics/SVG/1.1/DTD/svg11.dtd">
<svg version="1.1" xmlns="http://www.w3.org/2000/svg" xmlns:xlink="http://www.w3.org/1999/xlink" x="0px" y="0px" width="490px"
	 height="490px" viewBox="0 0 490 490" enable-background="new 0 0 490 490" xml:space="preserve">
<g id="Layer_1" display="none">
	<rect y="0" display="inline" fill="#41444B" width="490" height="490"/>
</g>
<g id="Layer_2">
	<path fill="none" stroke="#E6E6E6" stroke-width="46" stroke-linecap="round" d="M263.24,285.102
		c49.919-50.854,50.854-134.234,0-184.155c-50.854-49.92-132.547-49.167-182.469,1.687c-49.922,50.853-49.168,132.547,1.687,182.468
		C132.647,334.373,213.051,334.373,263.24,285.102"/>
	<path fill="#E6E6E6" d="M443.363,425.31c1.899,1.899,1.091,5.788-1.808,8.685l-29.977,29.978c-2.897,2.897-6.785,3.706-8.686,1.807
		L246.168,309.052c-1.9-1.899-1.092-5.787,1.807-8.686l29.977-29.977c2.898-2.897,6.786-3.706,8.686-1.807L443.363,425.31z"/>
</g>
</svg>
