<?xml version="1.0" encoding="utf-8"?>
<!-- Generator: Adobe Illustrator 16.0.3, SVG Export Plug-In . SVG Version: 6.00 Build 0)  -->
<!DOCTYPE svg PUBLIC "-//W3C//DTD SVG 1.1//EN" "http://www.w3.org/Graphics/SVG/1.1/DTD/svg11.dtd">
<svg version="1.1"
	 id="Layer_1" xmlns:dc="http://purl.org/dc/elements/1.1/" xmlns:cc="http://creativecommons.org/ns#" xmlns:rdf="http://www.w3.org/1999/02/22-rdf-syntax-ns#" xmlns:svg="http://www.w3.org/2000/svg" xmlns:sodipodi="http://sodipodi.sourceforge.net/DTD/sodipodi-0.dtd" xmlns:inkscape="http://www.inkscape.org/namespaces/inkscape" sodipodi:docname="icon_settings.svg" inkscape:version="0.48.5 r10040" sodipodi:version="0.32"
	 xmlns="http://www.w3.org/2000/svg" xmlns:xlink="http://www.w3.org/1999/xlink" x="0px" y="0px" width="132.882px"
	 height="133.078px" viewBox="0 0 132.882 133.078" enable-background="new 0 0 132.882 133.078" xml:space="preserve">
<sodipodi:namedview  showgrid="false" inkscape:cy="69.252383" inkscape:cx="11.842486" inkscape:zoom="5.4103608" borderopacity="1.0" bordercolor="#666666" pagecolor="#ffffff" id="base" inkscape:window-y="47" inkscape:window-x="191" inkscape:window-height="928" inkscape:window-width="1411" inkscape:current-layer="Layer_1" inkscape:pageshadow="2" inkscape:pageopacity="0.0" inkscape:window-maximized="0">
	</sodipodi:namedview>
<g id="g3">
	<path id="path10" fill="#7BC5EA" d="M125.144,56.349c-3.771,0-7.545,0.045-11.314,0.186c-0.896-4.456-2.479-8.765-4.656-12.756
		c-1.114-2.051-3.15-3.094-1.176-4.893c1.353-1.228,2.674-2.482,3.983-3.751c2.54-2.458,7.481-6.071,5.054-10.111
		c-2.408-4.008-9.553-12.402-14.613-8.778c-3.258,2.332-6.022,5.805-8.752,8.728c-1.84,1.972-10.07-3.345-13.151-4.284
		c-2.29-0.697-4.427-0.006-4.282-2.731c0.102-1.899,0.148-3.802,0.186-5.704c0.045-2.924,0.871-7.681-1.604-9.949
		c-2.69-2.47-13.091-2.182-16.192-0.591c-2.902,1.487-2.505,5.529-2.49,8.222c0.011,2.005,0.038,4.011,0.09,6.017
		c0.076,2.895,1.006,3.128-2.148,3.853c-4.414,1.016-8.685,2.631-12.661,4.795c-2.706,1.474-2.19,0.776-4.07-1.242
		c-1.784-1.917-3.619-3.792-5.471-5.644c-5.942-5.942-11.491,1.433-15.473,6.153c-2.454,2.908-1.425,5.693,1.093,8.212
		c1.554,1.552,3.121,3.095,4.703,4.618c3.003,2.895,2.475,2.563,0.439,6.089c-2.106,3.649-3.704,7.589-4.729,11.678
		c-0.889,3.547-6.993,1.883-10.459,1.883c-8.083,0-6.575,7.183-6.646,13.096c-0.099,8.382,6.688,7.291,13.357,7.168
		c3.019-0.057,3.419-1.006,4.392,2.141c0.679,2.203,1.527,4.354,2.533,6.43c0.999,2.063,2.151,4.051,3.442,5.944
		c1.956,2.872-0.17,3.17-2.443,5.329c-2.402,2.283-7.031,5.432-7.215,9.074c-0.154,3.044,3.263,5.365,5.149,7.253
		c1.886,1.887,4.212,5.315,7.26,5.157c3.995-0.205,7.724-5.771,10.257-8.424c1.112-1.164,2.211-2.338,3.291-3.531
		c2.416,1.359,4.945,2.514,7.554,3.451c2.667,0.961,5.417,1.688,8.207,2.188c-0.196,2.286-0.295,4.58-0.357,6.873
		c-0.093,3.384-1.316,9.583,1.551,12.215c2.403,2.205,7.079,1.19,10.015,1.252c2.549,0.056,6.148,0.456,7.717-2.1
		c2.355-3.851,0.939-10.925,0.785-15.24c-0.106-2.933-1.019-3.003,2.181-3.832c3.045-0.79,6.019-1.858,8.864-3.205
		c3.502-1.649,3.52-2.752,6.156,0.175c1.791,1.985,3.646,3.92,5.521,5.823c2.89,2.938,6.048,6.093,9.923,2.815
		c2.688-2.27,7.617-6.117,8.637-9.607c1.224-4.193-4.951-8.343-7.479-10.77c-2.236-2.146-4.736-2.779-2.863-5.639
		c1.604-2.441,2.975-5.037,4.082-7.738c0.84-2.045,1.528-4.147,2.063-6.295c2.412,0.156,4.826,0.233,7.24,0.274
		c3.48,0.062,9.649,1.05,10.865-3.456C133.132,67.049,133.389,56.349,125.144,56.349 M65.631,84.779
		c-10.628,0-20.194-8.436-20.194-19.324c0-10.889,9.565-19.324,20.194-19.324c10.626,0,20.195,8.435,20.195,19.324
		C85.826,76.344,76.259,84.779,65.631,84.779"/>
	<path id="path17" fill="#7BC5EA" d="M66.287,1.853c2.222-0.034,4.739-0.403,6.857,0.365c3.572,1.299,2.531,7.112,2.484,9.961
		c-0.024,1.531-1.121,6.786-0.32,8.029c0.813,1.265,9.244,2.709,11.057,3.537c6.891,3.14,5.463,4.316,10.604-1.013
		c2.663-2.76,6.866-9.078,11.128-5.777c2.656,2.06,9.874,8.281,8.585,11.593c-1.304,3.346-5.354,6.176-7.92,8.567
		c-2.923,2.722-3.367,1.872-1.364,5.159c2.313,3.799,4.063,7.936,5.156,12.25c0.604,2.394-0.082,2.838,2.031,2.802
		c4.068-0.069,10.314-1.296,14.18,0.4c3.521,1.548,2.27,9.16,2.229,12.543c-0.097,8.455-12.104,5.645-17.896,5.283
		c0.154,0.01-6.797,14.842-7.944,16.444c-0.547,0.765,7.356,7.558,8.384,8.538c4.941,4.761,2.821,7.328-1.516,11.688
		c-6.039,6.069-7.889,5.521-13.938-0.729c-2.146-2.221-4.26-4.479-6.246-6.852c-0.521-0.625-6.012,2.775-6.993,3.187
		c-1.476,0.612-8.899,1.845-9.533,2.872c-1.004,1.621,0.312,8.013,0.33,9.98c0.096,8.525-0.896,10.48-9.352,10.48
		c-2.232,0-4.709,0.41-6.843-0.365c-4-1.453-2.523-9.013-2.438-12.174c0.04-1.498,1.174-6.406,0.431-7.654
		c-0.568-0.955-8.392-2.117-9.829-2.668c-0.787-0.304-6.762-3.508-7.049-3.207c-1.525,1.59-3.051,3.18-4.578,4.771
		c-1.979,2.063-5.734,7.388-8.932,7.287c-2.806-0.047-9.959-7.553-11.098-10.109c-2.792-6.277,10.07-9.391,10.988-13.959
		c0.043-0.212-9.882-17.352-8.595-17.367c-3.593,0.051-7.317,0.409-10.899,0.152c-6.971,0-5.875-6.051-5.83-11.202
		c-0.16-7.395,3.619-7.569,9.824-7.444c2.137,0.043,4.276,0.086,6.414,0.128c0.444,0.01,2.333-7.586,2.722-8.551
		c1.339-3.326,3.101-6.425,5.146-9.363c0.438-0.629-1.932-2.346-2.398-2.799c-3.363-3.273-10.421-7.872-5.851-12.794
		c2.096-2.259,6.541-7.985,9.6-7.985c3.747,0,8.376,6.755,10.672,9.161c3.036,3.181,6.353-1.095,10.14-2.528
		c3.945-1.491,9.292-0.362,9.213-4.943c-0.058-3.255-0.396-6.637-0.172-9.884C56.925,1.449,61.375,1.775,66.287,1.853 M69.694,0.223
		c-3.688,0-9.813-1.099-12.571,1.586c-3.116,3.085-1.696,10.736-1.63,14.678c0.059,3.6-3.022,2.813-6.17,3.854
		c-1.466,0.484-9.462,4.621-10.028,4.025c-2.892-3.043-6.707-8.735-10.962-9.909c-4.166-1.15-7.581,3.806-10.172,6.478
		c-5.742,5.518-4.111,8.898,0.979,13.844c1.579,1.533,3.153,3.07,4.737,4.598c-2.533,3.705-4.533,7.768-5.897,12.042
		c-1.361,4.257-0.689,4.336-4.944,4.254c-2.461-0.048-5.048-0.305-7.504,0.003c-6.472,0.811-5.456,7.242-5.495,12.174
		c-0.062,8.137,3.169,9.688,10.582,9.567c2.239-0.035,4.479-0.076,6.717-0.104c1.116,4.187,2.831,8.201,5.067,11.91
		c1.376,2.283,3.278,2.844,1.032,4.901c-1.601,1.465-3.171,2.964-4.72,4.481c-2.292,2.248-5.735,5.252-4.299,8.881
		c1.176,2.967,7.935,9.732,10.902,10.908c4.637,1.838,8.851-4.354,11.594-7.205c1.362-1.418,2.717-2.846,4.093-4.25
		c3.94,2.146,8.163,3.761,12.527,4.799c3.048,0.725,2.151,0.836,2.018,3.6c-0.091,1.868-0.145,3.736-0.175,5.605
		c-0.057,3.466-0.923,9.162,2.917,11.095c3.094,1.558,9.554,0.978,13.09,0.706c8.238-0.635,5.908-11.883,5.716-17.564
		c-0.093-2.767-0.968-2.979,2.009-3.781c2.121-0.567,4.206-1.274,6.234-2.113c2.025-0.84,3.998-1.811,5.898-2.896
		c1.049,1.227,2.131,2.424,3.229,3.604c4.324,4.648,9.564,12.295,15.871,6.22c2.73-2.633,8.095-6.614,8.175-10.478
		c0-4.123-5.587-7.973-8.271-10.553c-2.08-2-3.722-2.265-2.068-4.847c2.221-3.476,3.977-7.233,5.207-11.169
		c1.902-6.08,17.525,3.359,19.051-6.684c0.542-3.584,1.059-12.589-1.447-15.132c-2.996-3.071-10.253-1.718-14.098-1.652
		c-3.811,0.065-3-2.746-4.229-6.091c-1.123-3.054-5.729-8.679-3.432-10.785c6.34-5.817,12.979-10.456,5.193-17.885
		c-2.6-2.681-6-7.617-10.18-6.482c-3.963,1.077-7.582,6.327-10.302,9.135c-2.466,2.545-4.069,0.031-7.077-1.328
		c-2.64-1.192-9.949-2.184-9.822-4.885C77.38,10.375,79.38,0.223,69.694,0.223"/>
	<path id="path24" fill="#7BC5EA" d="M44.65,65.457c0,26.066,41.962,26.066,41.962,0C86.612,39.391,44.65,39.39,44.65,65.457
		 M46.234,65.457c0-24.025,38.794-24.025,38.794,0C85.028,89.482,46.234,89.482,46.234,65.457"/>
	<path id="path43" fill="#7BC5EA" d="M65.631,31.895c-18.581,0-36.284,14.164-36.284,33.56c0,19.402,17.697,33.563,36.284,33.563
		c18.585,0,36.283-14.16,36.283-33.563C101.914,46.058,84.212,31.895,65.631,31.895 M65.631,93.859
		c-15.729,0-30.71-11.983-30.71-28.404c0-16.42,14.981-28.401,30.71-28.401s30.71,11.979,30.71,28.401
		C96.343,81.877,81.362,93.859,65.631,93.859"/>
	<path id="path45" fill="#7BC5EA" d="M24.022,47.759c1.389-2.133,2.794-4.254,4.284-6.319C26.071,40.979,24.669,46.14,24.022,47.759
		 M107.988,19.272c-1.503-5.967-10.33,4.207-11.839,5.825c-0.454,0.487-3.053,4-3.866,3.761c-4.902-3.622-10.621-6.063-16.558-7.381
		c-1.076,3.631,8.287,4.644,11.055,6.028c2.14,1.068,4.24,4.338,6.308,2.435c3.43-3.154,6.556-6.757,10.271-9.576
		c0.896-0.678,5.103-1.062,4.813,0.303C108.109,20.202,108.048,19.738,107.988,19.272 M40.692,28.996
		c3.305-2.111,6.968-3.595,10.795-4.437c2.593-0.569,6.13,0.171,5.04-3.526C53.526,21.596,39.653,24.832,40.692,28.996"/>
	<path id="path47" fill="#7BC5EA" d="M73.152,3.636c0,2.344-14.251,2.344-14.251,0C58.901,1.292,73.152,1.292,73.152,3.636"/>
	<path id="path49" fill="#7BC5EA" d="M66.03,128.432c-0.671,0-7.125-0.131-7.125,1.281c0,1.932,14.251,1.934,14.251,0
		C73.155,128.301,66.701,128.432,66.03,128.432"/>
	<path id="path51" fill="#7BC5EA" d="M11.008,72.88c-0.671,0-7.125-0.131-7.125,1.282c0,1.916,14.251,1.913,14.251,0
		C18.134,72.75,11.679,72.88,11.008,72.88"/>
	<path id="path53" fill="#7BC5EA" d="M121.58,72.88c-0.67,0-7.125-0.13-7.125,1.282c0,1.914,14.252,1.914,14.252,0
		C128.707,72.75,122.251,72.88,121.58,72.88"/>
	<path id="path55" fill="#7BC5EA" d="M17.557,106.256c-1.294,0,2.25,4.292,2.338,4.391c1.444,1.629,4.758,5.854,7.256,5.854
		c0.034,0.021-1.976-3.978-2.431-4.483C23.285,110.404,20.025,106.251,17.557,106.256"/>
	<path id="path57" fill="#7BC5EA" d="M94.355,104.674c-0.578,0,7.52,12.467,9.826,10.159
		C105.671,113.348,96.25,104.674,94.355,104.674"/>
	<path id="path59" fill="#7BC5EA" d="M26.671,16.666c1.05,1.051-9.306,11.41-10.357,10.358C15.267,25.972,25.62,15.62,26.671,16.666
		"/>
	<path id="path61" fill="#7BC5EA" d="M115.199,27.97c-1.964,0-11.219,9.358-10.205,10.408
		C106.837,40.223,115.24,27.97,115.199,27.97"/>
	<path id="path63" fill="#7BC5EA" d="M115.726,106.081c-1.962,0-11.193,9.419-10.205,10.407
		C107.472,118.348,115.712,106.081,115.726,106.081"/>
	<path id="path65" fill="#7BC5EA" d="M37.346,106.081c-1.842,0-4.608,3.414-5.731,4.537c-0.465,0.462-4.612,5.885-4.463,5.881
		C29.433,118.322,37.092,106.081,37.346,106.081"/>
	<path id="path67" fill="#7BC5EA" d="M27.347,115.672c-0.07,0.271-0.138,0.545-0.207,0.816
		C27.825,117.173,26.743,114.15,27.347,115.672"/>
	<path id="path69" fill="#7BC5EA" d="M17.435,58.462c0,1.339-12.324-0.53-12.924,1.248c-0.368,1.084-0.489,11.103-1.228,11.024
		c-1.711-0.186-0.224-10.043-0.08-11.327C3.558,56.244,17.435,57.476,17.435,58.462"/>
	<path id="path71" fill="#7BC5EA" d="M23.478,100.129c-0.358,0.357-4.58,4.749-5.319,4.014c-0.977-0.978,8.35-10.313,9.332-9.33
		C28.226,95.548,23.835,99.773,23.478,100.129"/>
	<path id="path73" fill="#7BC5EA" d="M128.574,58.66c0,1.19-14.847,1.19-14.847,0S128.574,57.47,128.574,58.66"/>
	<path id="path75" fill="#7BC5EA" d="M101.119,74.258c-7.886,24.178-41.95,33.291-60.554,15.48c0,3.726,7.864,8.189,10.455,9.56
		c9.041,4.776,19.717,4.771,29.239,1.414C92.283,96.477,99.203,86.506,101.119,74.258 M101.58,72.275
		c-0.306,0.617-0.461,1.277-0.461,1.98C100.85,75.084,101.843,72.275,101.58,72.275"/>
	<path id="path77" fill="#7BC5EA" d="M90.128,90.213c-8.31,6.803-19.976,9.833-30.566,8.335
		C70.359,100.232,81.753,97.307,90.128,90.213"/>
	<path id="path79" fill="#7BC5EA" d="M35.812,60.705c0-9.224,8.177-18.148,16.011-21.707c8.522-3.872,17.985-3.937,26.436,0.105
		c1.084,0.518,13.453,7.704,11.892,9.714c0.415-0.534-7.813-6.607-8.427-6.956c-7.797-4.435-17.463-4.583-25.884-1.935
		C48.108,42.359,35.812,51.58,35.812,60.705"/>
	<path id="path81" fill="#7BC5EA" d="M29.221,60.477c0-11.246,10.8-22.154,20.227-26.36c10.268-4.583,21.688-4.81,31.842,0.146
		c3.762,1.836,7.336,4.222,10.342,7.144c0.162,0.158,3.229,3.874,2.679,3.895c-0.649,0.027-2.156-2.297-2.538-2.712
		c-2.223-2.406-4.743-4.534-7.549-6.232c-9.406-5.692-21.297-5.859-31.503-2.277c-8.237,2.891-15.042,8.673-19.335,16.251
		C31.957,52.851,29.221,57.912,29.221,60.477"/>
	<path id="path83" fill="#7BC5EA" d="M96.321,66.114c0.076-0.002-1.774,6.544-1.93,6.928c-2.031,5.045-5.354,9.536-9.722,12.802
		c-14.185,10.598-33.677,7.998-44.948-5.132c15.231,22.079,55.698,13.75,56.604-14.6"/>
	<path id="path85" fill="#7BC5EA" d="M87.783,85.129c-0.865,0.83-1.773,1.605-2.729,2.329
		C86.015,86.743,86.925,85.967,87.783,85.129 M39.057,80.084c-0.394,0,5.06,5.707,5.491,6.023
		C43.611,85.29,40.002,80.084,39.057,80.084"/>
</g>
</svg>
