<?xml version="1.0" encoding="utf-8"?>
<!-- Generator: Adobe Illustrator 16.0.3, SVG Export Plug-In . SVG Version: 6.00 Build 0)  -->
<!DOCTYPE svg PUBLIC "-//W3C//DTD SVG 1.1//EN" "http://www.w3.org/Graphics/SVG/1.1/DTD/svg11.dtd">
<svg version="1.1" xmlns="http://www.w3.org/2000/svg" xmlns:xlink="http://www.w3.org/1999/xlink" x="0px" y="0px" width="16px"
	 height="16px" viewBox="0 0 16 16" enable-background="new 0 0 16 16" xml:space="preserve">
<g id="Layer_2_1_">
	<g>
		<path fill="#202225" d="M2,15.5c-0.827,0-1.5-0.673-1.5-1.5V2c0-0.827,0.673-1.5,1.5-1.5h12c0.826,0,1.5,0.673,1.5,1.5v12
			c0,0.827-0.674,1.5-1.5,1.5H2z"/>
		<path fill="#828790" d="M14,1c0.551,0,1,0.449,1,1v12c0,0.553-0.449,1-1,1H2c-0.551,0-1-0.447-1-1V2c0-0.551,0.449-1,1-1H14 M14,0
			H2C0.896,0,0,0.896,0,2v12c0,1.104,0.896,2,2,2h12c1.105,0,2-0.896,2-2V2C16,0.896,15.105,0,14,0L14,0z"/>
	</g>
</g>
<g id="Layer_1">
	<g id="Layer_1_1_" display="none">
		<g display="inline">
			<path fill="#3FAAE1" d="M2,15.5c-0.827,0-1.5-0.673-1.5-1.5V2c0-0.827,0.673-1.5,1.5-1.5h12c0.826,0,1.5,0.673,1.5,1.5v12
				c0,0.827-0.674,1.5-1.5,1.5H2z"/>
			<path fill="#3FAAE1" d="M14,1c0.551,0,1,0.449,1,1v12c0,0.553-0.449,1-1,1H2c-0.551,0-1-0.447-1-1V2c0-0.551,0.449-1,1-1H14
				 M14,0H2C0.896,0,0,0.896,0,2v12c0,1.104,0.896,2,2,2h12c1.105,0,2-0.896,2-2V2C16,0.896,15.105,0,14,0L14,0z"/>
		</g>
	</g>
	<g id="Layer_2">
		<path fill="#E6E6E6" d="M14.63,3.12c0,0.2-0.06,0.41-0.18,0.59L8.03,13.48c-0.23,0.34-0.62,0.51-1,0.47
			c-0.3,0.03-0.6-0.07-0.83-0.3l-4.18-4.18C1.59,9.04,1.59,8.36,2.02,7.94C2.23,7.72,2.5,7.62,2.78,7.62c0.28,0,0.56,0.1,0.77,0.32
			l3.34,3.339l5.75-8.759c0.33-0.5,1-0.63,1.5-0.31C14.46,2.42,14.63,2.76,14.63,3.12z"/>
	</g>
</g>
</svg>
